<svg width="16" height="16" viewBox="0 0 16 16" fill="none" xmlns="http://www.w3.org/2000/svg">
<path fill-rule="evenodd" clip-rule="evenodd" d="M10.9091 5.81818C9.94467 5.81818 9.01974 6.2013 8.33779 6.88325C7.65584 7.5652 7.27273 8.49012 7.27273 9.45455V13.8182H8.72727V9.45455C8.72727 8.87589 8.95714 8.32094 9.36631 7.91177C9.77548 7.5026 10.3304 7.27273 10.9091 7.27273C11.4877 7.27273 12.0427 7.5026 12.4519 7.91177C12.861 8.32094 13.0909 8.87589 13.0909 9.45455V13.8182H14.5455V9.45455C14.5455 8.49012 14.1623 7.5652 13.4804 6.88325C12.7984 6.2013 11.8735 5.81818 10.9091 5.81818ZM7.30928 5.85473C8.26401 4.9 9.5589 4.36364 10.9091 4.36364C12.2593 4.36364 13.5542 4.9 14.5089 5.85473C15.4636 6.80946 16 8.10435 16 9.45455V14.5455C16 14.9471 15.6744 15.2727 15.2727 15.2727H12.3636C11.962 15.2727 11.6364 14.9471 11.6364 14.5455V9.45455C11.6364 9.26166 11.5597 9.07668 11.4234 8.94029C11.287 8.8039 11.102 8.72727 10.9091 8.72727C10.7162 8.72727 10.5312 8.8039 10.3948 8.94029C10.2584 9.07668 10.1818 9.26166 10.1818 9.45455V14.5455C10.1818 14.9471 9.85621 15.2727 9.45455 15.2727H6.54545C6.14379 15.2727 5.81818 14.9471 5.81818 14.5455V9.45455C5.81818 8.10435 6.35454 6.80946 7.30928 5.85473Z" fill="black"/>
<path fill-rule="evenodd" clip-rule="evenodd" d="M0 5.81818C0 5.41652 0.325611 5.09091 0.727273 5.09091H3.63636C4.03803 5.09091 4.36364 5.41652 4.36364 5.81818V14.5455C4.36364 14.9471 4.03803 15.2727 3.63636 15.2727H0.727273C0.325611 15.2727 0 14.9471 0 14.5455V5.81818ZM1.45455 6.54545V13.8182H2.90909V6.54545H1.45455Z" fill="black"/>
<path fill-rule="evenodd" clip-rule="evenodd" d="M2.18182 1.45455C1.78016 1.45455 1.45455 1.78016 1.45455 2.18182C1.45455 2.58348 1.78016 2.90909 2.18182 2.90909C2.58348 2.90909 2.90909 2.58348 2.90909 2.18182C2.90909 1.78016 2.58348 1.45455 2.18182 1.45455ZM0 2.18182C0 0.976833 0.976833 0 2.18182 0C3.3868 0 4.36364 0.976833 4.36364 2.18182C4.36364 3.3868 3.3868 4.36364 2.18182 4.36364C0.976833 4.36364 0 3.3868 0 2.18182Z" fill="black"/>
</svg>
