<svg width="380" height="234" viewBox="0 0 380 234" fill="none" xmlns="http://www.w3.org/2000/svg">
<path d="M255.595 33.3133C189.084 -31.8165 75.9782 3.62958 59.2456 95.6043C35.6077 99.0169 15.3541 114.489 5.79477 136.481C5.7829 136.507 5.77102 136.533 5.75989 136.56C-14.0468 182.281 19.7011 233.217 69.2243 233.217H278.719C334.566 233.217 380 187.783 380 131.937C380 67.0606 319.374 18.4036 255.595 33.3133ZM278.719 209.471H69.225C17.8316 209.471 6.485 136.541 55.3357 120.812C66.2852 117.361 87.2572 115.358 110.54 137.06C115.337 141.531 122.849 141.266 127.32 136.471C131.791 131.673 131.527 124.161 126.731 119.69C113.424 107.286 98.4753 99.4058 83.3251 96.3458C99.6784 22.8121 192.704 -1.51228 243.078 54.5569C246.188 58.0163 251.03 59.3448 255.468 57.9487C305.396 42.276 356.253 79.7497 356.253 131.937C356.254 174.689 321.472 209.471 278.719 209.471Z" fill="#000"/>
</svg>
