<?xml version="1.0" encoding="utf-8"?>
<!-- Generator: Adobe Illustrator 26.0.3, SVG Export Plug-In . SVG Version: 6.00 Build 0)  -->
<svg version="1.0" id="Layer_1" xmlns="http://www.w3.org/2000/svg" xmlns:xlink="http://www.w3.org/1999/xlink" x="0px" y="0px"
	 viewBox="0 0 694.4 528.4" style="enable-background:new 0 0 694.4 528.4;" xml:space="preserve">
<style type="text/css">
	.st0{fill:url(#SVGID_1_);}
	.st1{fill:url(#SVGID_00000159433473390530834820000014142573462904074430_);}
	.st2{fill:url(#_x3C_Path_x3E__1_00000170272768852593245190000013244162576027434645_);}
	.st3{fill:#414141;}
	.st4{fill:url(#SVGID_00000062881542811023798570000007419824432296860859_);}
</style>
<linearGradient id="SVGID_1_" gradientUnits="userSpaceOnUse" x1="372.9034" y1="85.1518" x2="230.0881" y2="342.7973" gradientTransform="matrix(1 0 0 -1 -20.9449 532.9422)">
	<stop  offset="0" style="stop-color:#DADADA"/>
	<stop  offset="0.3657" style="stop-color:#DFDFDD"/>
	<stop  offset="0.5383" style="stop-color:#EBEBE9"/>
	<stop  offset="0.7558" style="stop-color:#FFFFFF"/>
	<stop  offset="0.8184" style="stop-color:#F0F0F0"/>
	<stop  offset="0.9033" style="stop-color:#D4D4D4"/>
</linearGradient>
<path class="st0" d="M444.5,255.2c1.2-4.5,2.1-9.3,2.3-14.2c0.4-9.7-1.2-19.3-4.5-28.2c-2.9-7.4-7-14-12.3-20
	c-1.2-1.4-2.5-2.7-3.9-3.9c-0.6-0.6-1.2-1-1.6-1.6c-15-13.4-36.6-21.6-60.5-24.3c-5.8-0.6-11.5-1-17.3-1c-13,0-26.3,1.6-39.7,4.5
	c-14.2,3.3-28.2,8-41.4,14.4c-18.1,8.6-35.4,22-45.1,29c-12.3,9.1-18.5,8.2-25.7,4.9c10.1,5.6,22.8,8,39.7,5.8
	c7-1,14.4-1.9,21.6-2.3c10.9-0.8,21.8-1,32.7-0.4c20.6,1.4,46.1,6,58.6,24.1c3.3,4.7,4.9,10.1,6,16.9c1.6,12.3-2.1,24.5-8.2,35.2
	c-3.9,6.6-8.6,12.8-13.8,18.3c-6.8,7.2-14.4,13.6-22.4,19.3c-4.1,3.1-8.4,6-12.8,8.6c-10.3,6.8-24.3,15.6-40.3,24.9
	C205.6,393.9,136.7,424,104,399.5c8.2,7,17.9,12.3,28.4,15.4c11.5,3.3,23.7,3.7,35.6,2.7c21.2-1.9,41.8-8.2,61.5-16.1
	c20.2-7.8,39.5-17.5,58.6-27.4c4.9-2.5,10.1-5.1,15-7.8c27.6-14.2,56.4-28.8,80.7-44.9c15-9.9,29.6-20.8,41.6-34.2
	c5.1-5.8,9.7-11.9,13.4-18.5L444.5,255.2z"/>
<linearGradient id="SVGID_00000148650309005694772650000001606342532333947568_" gradientUnits="userSpaceOnUse" x1="55.7822" y1="328.5143" x2="309.6102" y2="74.6866" gradientTransform="matrix(1 0 0 -1 -20.9449 532.9422)">
	<stop  offset="0.2002" style="stop-color:#F50039"/>
	<stop  offset="0.2403" style="stop-color:#FF3665"/>
	<stop  offset="0.2697" style="stop-color:#FF5B80"/>
	<stop  offset="0.3438" style="stop-color:#FE8E8E"/>
	<stop  offset="0.4074" style="stop-color:#FEADB2"/>
	<stop  offset="0.4759" style="stop-color:#FF8DAF"/>
	<stop  offset="0.4921" style="stop-color:#FF8AAF"/>
	<stop  offset="0.5901" style="stop-color:#FF77BD"/>
	<stop  offset="0.6507" style="stop-color:#E76CD7"/>
	<stop  offset="0.7003" style="stop-color:#AF5BE7"/>
	<stop  offset="0.7279" style="stop-color:#895EFD"/>
</linearGradient>
<path style="fill:url(#SVGID_00000148650309005694772650000001606342532333947568_);" d="M104,399.1c43,32.7,148.8-30,192.2-59.1
	c-42.6,28.4-100.6,45.1-137.5,41.2c-59.9-6.4-71.8-108.4-62.4-178.6C93.7,217.6,55.2,357.9,104,399.1z"/>
<linearGradient id="_x3C_Path_x3E__1_00000119797630193737938430000004448601626290589602_" gradientUnits="userSpaceOnUse" x1="147.5273" y1="436.9883" x2="267.1505" y2="317.365" gradientTransform="matrix(1 0 0 -1 -20.9449 532.9422)">
	<stop  offset="0.2803" style="stop-color:#FC6EA6"/>
	<stop  offset="0.4651" style="stop-color:#E069D2"/>
	<stop  offset="0.5671" style="stop-color:#E67EEB"/>
	<stop  offset="0.6555" style="stop-color:#DC64F9"/>
	<stop  offset="0.7013" style="stop-color:#C165FA"/>
	<stop  offset="0.7861" style="stop-color:#9566FB"/>
	<stop  offset="0.8291" style="stop-color:#8466FC"/>
	<stop  offset="0.9351" style="stop-color:#5978F9"/>
</linearGradient>
<path id="_x3C_Path_x3E__1_1_" style="fill:url(#_x3C_Path_x3E__1_00000119797630193737938430000004448601626290589602_);" d="
	M150.5,131.5c-7.8,0-15.4,1-27.2,5.1l0,0c33.3-12.1,30.9,53.3,68.7,76.6c0.2,0.2,0.4,0.2,0.6,0.4c0.2,0.2,0.4,0.2,0.6,0.4
	c20.2,11.3,27-10.3,72.2-33.1c-7.8,3.9-14.8,7-23.5,8.2c-13.2,1.6-20.8-9.5-26.1-15.8c-4.3-5.6-24.9-41.6-64.8-41.8H150.5z"/>
<path class="st3" d="M186.3,266.1v10.5h24.1v13.8h-24.1v24.5H170v-62.6h42.2v13.8C212.2,266.1,186.3,266.1,186.3,266.1z"/>
<path class="st3" d="M225.2,314.9v-62.6h16.3v62.6H225.2z"/>
<path class="st3" d="M302.9,314.9l-29.8-38.3v38.3h-16.3v-62.6h16.3l29.8,38.3v-38.3h16.3v62.6H302.9z"/>
<path class="st3" d="M376.2,314.9l-4.1-10.9h-22.4l-4.3,10.9h-17.1l23.7-62.6h17.9l23.9,62.6H376.2z M361,271.7l-6.8,20h13.6
	L361,271.7z"/>
<path class="st3" d="M485.9,266.1v48.8h-16.3v-48.8h-15v-13.8h46.5v13.8H485.9z"/>
<path class="st3" d="M543.7,314.9l-15.6-24.1v24.1h-16.3v-62.6h25.3c6,0,11.1,1,15.2,5.6c3.5,3.7,5.4,8.8,5.4,13.8
	c0,3.9-1.2,8.4-3.5,11.5c-2.5,3.5-6,5.1-10.1,6l19.5,25.5h-20V314.9z M531.4,264.9h-3.1v15.4h3.1c5.1,0,9.9-2.1,9.9-7.8
	C541.2,266.7,536.3,264.9,531.4,264.9z"/>
<path class="st3" d="M615.9,314.9l-4.1-10.9h-22.4l-4.3,10.9H568l24.1-62.6h17.7l23.5,62.6H615.9z M600.9,271.7l-6.8,20h13.6
	L600.9,271.7z"/>
<path class="st3" d="M445.6,305.6c-4.1,8-13.8,11.1-22.2,11.1c-7.8,0-15.8-2.9-22.2-7.2l7.2-13.2c4.1,3.5,8.8,6.4,14.4,6.4
	c3.9,0,7.8-1.6,7.8-6.2c0-10.9-26.8-2.7-26.8-24.9c0-12.8,8.6-21.4,21.4-21.4c7,0,13.2,1.4,19.3,4.7l-5.6,13.4
	c-3.1-2.5-6.8-4.3-11.1-4.3c-3.3,0-7,1.9-7,5.6c0,9.3,27,3.3,27,24.9C447.8,298,447.2,302.3,445.6,305.6z"/>
<linearGradient id="SVGID_00000141454787632555982020000014058719447896066183_" gradientUnits="userSpaceOnUse" x1="104.4856" y1="390.0623" x2="144.2201" y2="141.993" gradientTransform="matrix(1 0 0 -1 -20.9449 532.9422)">
	<stop  offset="5.890821e-02" style="stop-color:#D5D5D5"/>
	<stop  offset="0.3079" style="stop-color:#FFFFFF"/>
	<stop  offset="0.3952" style="stop-color:#E1E0E0"/>
	<stop  offset="0.4777" style="stop-color:#CBCACA"/>
	<stop  offset="0.5304" style="stop-color:#C3C2C2"/>
</linearGradient>
<path style="fill:url(#SVGID_00000141454787632555982020000014058719447896066183_);" d="M88.5,379.3c0.8,1.4,1.6,2.9,2.7,4.3
	c0.8,1.4,1.9,2.7,2.7,3.9c1,1.2,1.9,2.5,2.9,3.7c1,1.2,1.9,2.5,2.9,3.5c-13.8-15.4-18.7-40.5-19.5-67.7c0-1.6,0-3.3,0-5.1
	c-0.2-33.5,5.1-66.7,12.1-99.4c2.1-9.5,4.1-18.7,5.8-28.2c1.2-6.6,2.9-14.2,4.3-20.8c4.3-20.6,13.2-31.3,15-33.1
	c1.9-1.9,3.9-3.1,6.2-3.9l0,0c-3.5,1.4-8.4,3.5-11.7,5.1c-6.6,3.3-13.2,7.2-18.7,11.9c-2.7,2.1-4.9,4.3-7.2,6.8
	c-11.1,11.5-17.7,25.1-21.2,39.9c-2.1,8.4-3.1,17.1-3.3,25.7c-1.2,31.7,5.1,63.2,9.7,94.2C73.9,340.6,78.2,361.2,88.5,379.3z"/>
</svg>
