<svg width="68" height="63" viewBox="0 0 68 63" fill="none" xmlns="http://www.w3.org/2000/svg">
<path d="M42.7188 17.7144C43.1555 17.6929 43.5922 17.306 43.585 16.9478C43.5707 16.525 43.2056 16.0378 42.9121 16.045C42.3681 16.0665 41.824 16.525 41.8526 16.9263C41.8813 17.3275 42.3251 17.7287 42.7188 17.7144Z" fill="black"/>
<path d="M67.9674 31.9798C67.7168 31.5499 67.6453 31.0054 67.1155 30.769C67.0869 30.7546 67.0439 30.7045 67.0439 30.6758C67.1227 30.2674 66.7003 30.2961 66.5285 30.1026C66.4498 30.0167 66.3352 29.945 66.2636 29.8375C65.963 29.3647 65.5692 28.9993 65.0968 28.6912C64.8677 28.5479 64.6529 28.3688 64.4883 28.1323C64.4239 28.032 64.4668 27.8744 64.3451 27.8171C63.887 27.595 63.7509 27.0863 63.4073 26.7567C63.0924 26.4558 62.8848 26.0617 62.4839 25.8253C62.0758 25.5817 61.9183 25.0801 61.5389 24.7792C61.3098 24.6001 61.1738 24.3278 60.866 24.2275C60.687 24.1702 60.5367 24.0197 60.5081 23.7905C60.4938 23.683 60.4436 23.5612 60.3291 23.5325C60.1501 23.4824 60.0857 23.3463 60.007 23.2101C59.8996 23.0167 59.8065 22.8232 59.5631 22.7301C59.42 22.6728 59.2839 22.5653 59.1265 22.4936C58.9761 22.4292 58.8401 22.3217 58.8544 22.1426C58.8544 22.0064 58.7828 21.9348 58.7184 21.8345C58.475 21.4619 57.9954 21.3616 57.752 20.989C57.7305 20.9604 57.6804 20.9532 57.6446 20.9389C57.4728 20.8816 57.3654 20.7884 57.437 20.5878C57.48 20.4588 57.4155 20.3729 57.301 20.3299C56.9288 20.1937 56.5708 19.9573 56.1413 20.1221C56.0697 20.1508 56.0125 20.0863 55.948 20.0648C55.4612 19.9286 55.0102 19.6206 54.502 19.6062C53.9794 19.5919 53.5785 19.119 53.0345 19.291C53.0345 19.291 53.0201 19.2838 53.0058 19.2766C52.7409 19.119 52.4403 19.0832 52.1396 19.0402C51.8533 18.9972 51.5884 19.1119 51.3307 19.1907C51.1517 19.2408 51.1231 19.7925 51.2591 20.0075C51.5884 20.5591 52.204 20.5377 52.7123 20.7096C52.877 20.7669 53.106 20.7383 53.2421 20.8457C53.4497 21.0105 53.6787 21.0034 53.9078 21.0177C54.0939 21.032 54.2729 21.0249 54.4948 21.1467C54.0939 21.0893 53.8147 21.3258 53.464 21.3401C52.8483 21.3544 52.2542 21.6339 51.6314 21.6983C51.2233 21.7413 50.8582 21.9778 50.4287 21.9706C49.9992 21.9634 49.5625 22.0279 49.2475 22.379C49.2189 22.4077 49.1545 22.4148 49.1044 22.4077C48.7822 22.3862 48.4887 22.5223 48.188 22.6011C47.959 22.6584 47.7943 22.6298 47.6941 22.4077C47.6368 22.2859 47.5581 22.207 47.4364 22.1426C47.1858 22.0064 47.0928 21.4834 47.2932 21.3616C47.5581 21.2111 47.78 21.0177 47.9876 20.8027C48.1165 20.6666 48.3742 20.6881 48.4458 20.8457C48.5531 21.0965 48.7536 21.1467 48.9612 21.2183C49.1688 21.29 49.3835 21.3759 49.5339 21.118C49.677 20.8744 49.5768 20.6881 49.3764 20.5233C49.1473 20.3299 48.9683 20.0863 48.7321 19.8928C49.2261 20.0218 49.7272 20.0648 50.2211 20.1364C50.4931 20.1722 50.6793 20.0504 50.7652 19.7424C50.8153 19.5489 50.7938 19.3483 50.5862 19.2552C50.3929 19.162 50.1925 19.0689 49.9634 19.076C49.677 19.0904 49.4265 18.9829 49.1616 18.9041C49.0829 18.8826 48.9612 18.8468 48.997 18.7321C49.0328 18.6175 49.1473 18.6533 49.2261 18.682C49.7558 18.8754 50.2784 18.7035 50.8081 18.6676C51.1016 18.6461 51.2305 18.4384 51.1589 18.2019C51.0443 17.815 50.8367 17.6646 50.5504 17.7649C50.4573 17.7935 50.3714 17.8795 50.2712 17.815C50.0708 17.6789 49.8489 17.7434 49.6413 17.7577C49.1187 17.7935 48.9182 17.5929 48.9469 17.0771C48.9612 16.726 49.1545 16.3462 48.7607 16.0597C48.7178 16.0238 48.7106 15.9092 48.7178 15.8304C48.7894 15.3647 48.3097 15.0208 48.4243 14.5479C48.4243 14.5264 48.3956 14.4906 48.3742 14.4762C48.0162 14.2685 47.9876 13.8672 47.8444 13.5448C47.78 13.3872 47.7084 13.2439 47.5867 13.1221C47.4221 12.9645 47.329 12.7997 47.5509 12.6062C47.6297 12.5346 47.5867 12.4414 47.5509 12.3555C47.3218 11.8468 47.3075 11.3237 47.4006 10.772C47.4364 10.5786 47.5581 10.3708 47.4507 10.1487C47.2932 9.81913 47.3218 9.38924 46.9496 9.16713C46.9281 9.1528 46.921 9.11698 46.9138 9.08832C46.8637 8.75157 46.6131 8.57962 46.3554 8.41483C46.019 8.20705 45.6682 8.04942 45.253 8.09241C44.981 8.12107 44.6731 8.02793 44.5586 8.4005C44.5371 8.46498 44.4727 8.48647 44.4154 8.49364C43.8571 8.55812 43.5707 9.00234 43.2343 9.36058C43.1627 9.43939 43.1126 9.54686 42.9837 9.55403C42.8262 9.56119 42.7475 9.67583 42.6616 9.7833C42.5685 9.9051 42.5041 10.1344 42.3537 10.12C42.0244 10.0842 41.7596 10.3063 41.4518 10.3135C41.2585 10.3135 41.058 10.2633 40.8647 10.2705C40.3207 10.2777 39.8267 10.6144 39.2684 10.5356C38.9605 10.4855 38.7529 10.7362 38.4952 10.8365C38.2232 10.944 37.9727 10.9727 37.7651 10.7362C37.6434 10.5929 37.5073 10.4711 37.3642 10.3493C37.0277 10.0627 36.7628 9.70449 36.4121 9.42506C36.0685 9.1528 35.6389 9.06682 35.2667 8.88054C34.9302 8.70858 34.873 8.67992 35.0806 8.37184C35.1378 8.28586 35.0949 8.22138 35.0519 8.14973C35.0018 8.06375 34.9445 7.99927 34.9302 7.88463C34.8944 7.49057 34.5795 7.16099 34.6582 6.73827C34.6582 6.72394 34.6439 6.69528 34.6296 6.68811C34.2287 6.3657 34.2931 5.8355 34.0712 5.41994C33.8564 5.01872 33.9853 4.51002 34.2072 4.08729C34.3074 3.89384 34.4148 3.6789 34.3719 3.47112C34.2931 3.13438 34.3504 2.79763 34.3361 2.46805C34.3074 1.63693 34.0282 0.906126 33.5128 0.26846C33.4484 0.189647 33.3696 0.117999 33.2694 0.110834C32.8399 0.0750105 32.4175 -0.0611205 31.9809 0.0320217C31.8377 0.0678457 31.7303 0.175318 31.58 0.203977C31.2364 0.261295 30.9357 0.461909 30.6279 0.605205C30.2055 0.805819 29.9335 1.22138 29.6042 1.55812C29.4968 1.66559 29.4038 1.77307 29.2319 1.75874C28.9599 1.74441 28.7237 1.62261 28.4803 1.5223C28.108 1.36467 27.7573 1.27153 27.385 1.49364C27.3277 1.52946 27.2562 1.55812 27.1917 1.55812C26.8696 1.57962 26.5618 1.62261 26.2325 1.54379C26.0463 1.5008 25.8029 1.45065 25.6097 1.62261C25.5452 1.67992 25.4593 1.69425 25.3877 1.65126C25.2088 1.53663 25.1014 1.6441 24.9725 1.74441C24.6289 2.00234 24.2352 2.14563 23.8057 2.08832C23.6339 2.06682 23.548 2.06682 23.4334 2.21012C23.233 2.46805 22.9323 2.45372 22.8321 2.16713C22.7462 1.93069 22.6174 1.7874 22.4097 1.67992C22.2952 1.62261 22.2523 1.50797 22.1878 1.40766C21.9588 1.05659 21.8013 0.691182 21.3073 0.547887C20.6201 0.340108 19.9615 0.0678457 19.217 0.203977C19.1025 0.225471 19.0595 0.289954 18.9879 0.347273C18.6658 0.590875 18.5942 1.00643 18.3222 1.29302C18.1861 1.43632 18.0859 1.65126 18.1002 1.91636C18.1146 2.14563 18.2434 2.44656 18.1432 2.59702C17.8855 2.96959 18.0215 3.35648 18.0573 3.70756C18.1002 4.17327 18.1217 4.64615 18.179 5.11902C18.1861 5.18351 18.179 5.24799 18.136 5.28381C17.9499 5.42711 17.907 5.61339 17.9356 5.8355C17.9428 5.89282 17.9141 5.9788 17.8712 6.02179C17.6421 6.26539 17.549 6.5878 17.3915 6.8744C17.2627 7.11083 17.413 7.41176 17.1839 7.61953C17.0909 7.70551 17.1124 7.82731 17.098 7.94911C17.0694 8.26437 17.1124 8.60828 17.0193 8.8877C16.9262 9.16713 16.8761 9.43223 16.8976 9.71882C16.9191 9.99108 16.7401 10.1989 16.4895 10.1845C16.196 10.163 15.9312 10.3063 15.6448 10.2848C15.4945 10.2777 15.3298 10.3422 15.1938 10.4066C14.9648 10.5069 14.886 10.7291 14.9218 10.944C14.9504 11.1804 15.158 11.2091 15.3585 11.1876C15.745 11.1446 16.1459 11.2521 16.5182 11.03C16.647 10.9512 16.869 11.0013 16.9549 11.1231C17.0551 11.2736 16.8761 11.3882 16.7616 11.4742C16.6542 11.553 16.5253 11.6103 16.3965 11.6605C16.1674 11.7536 15.9312 11.8109 15.6878 11.8683C15.4587 11.9184 15.1724 12.3196 15.2081 12.4844C15.2511 12.6707 15.5732 12.771 15.8811 12.6922C15.9169 12.685 15.967 12.6779 15.9956 12.6564C16.3249 12.4199 16.7473 12.4486 17.0909 12.2408C17.234 12.1548 17.3343 12.2552 17.413 12.3626C17.5061 12.4916 17.3772 12.5346 17.3128 12.5991C17.2555 12.6492 17.1839 12.6922 17.1124 12.7209C16.6542 12.9072 16.4251 13.294 16.2247 13.7024C16.1602 13.8386 16.2104 13.946 16.3249 14.0392C16.4609 14.1538 16.5826 14.118 16.7329 14.0535C17.1553 13.8816 17.4416 13.4732 17.8998 13.3657C18 13.3442 18.1074 13.2869 18.1647 13.3944C18.315 13.6666 18.5942 13.7598 18.8233 13.9174C18.9879 14.032 19.1955 14.2541 19.174 14.3616C19.081 14.7557 19.0595 15.2214 18.723 15.4936C18.4653 15.7014 18.4081 15.945 18.3723 16.2388C18.3007 16.8191 18.2506 16.8621 17.685 16.8908C17.6063 16.8908 17.5276 16.9051 17.4488 16.9266C17.1052 17.0054 16.7687 17.1129 16.418 17.0627C16.196 17.0341 15.9884 17.0412 15.7808 17.1272C15.473 17.2562 15.1509 17.292 14.8287 17.3422C14.6927 17.3636 14.5138 17.3636 14.435 17.4496C13.9554 17.9512 13.3469 17.4926 12.8315 17.6932C12.8315 17.6932 12.81 17.6932 12.8028 17.6861C12.6955 17.6073 12.5952 17.6287 12.5093 17.7219C12.4163 17.815 12.2946 17.8222 12.18 17.8509C11.7792 17.9368 11.3711 18.0085 10.9702 18.0801C10.7769 18.116 10.6266 18.2879 10.419 18.2736C9.89643 18.2449 9.42396 18.424 8.95149 18.6175C8.84411 18.6676 8.73673 18.7035 8.60788 18.6748C8.18552 18.5888 7.78463 18.7321 7.39807 18.8253C7.11888 18.8897 7.00434 19.1907 6.89696 19.4629C6.82537 19.6421 6.96139 19.7137 7.01866 19.8283C7.06161 19.9215 7.0974 20.029 7.02582 20.1078C6.75379 20.4015 6.70368 20.8242 6.39585 21.1037C6.20973 21.2685 6.0236 21.4834 5.98781 21.77C5.97349 21.8846 5.88043 21.9563 5.816 22.0423C5.5225 22.4578 5.13593 22.8017 4.9856 23.3104C4.93549 23.4752 4.83527 23.6113 4.67778 23.726C4.52029 23.8478 4.38427 23.9911 4.28405 24.206C4.17667 24.4496 4.06929 24.7291 3.88317 24.944C3.58251 25.2807 3.31048 25.6318 3.09572 26.0259C2.89528 26.377 2.72347 26.7567 2.44428 27.0433C2.20805 27.2869 2.10067 27.5663 2.01476 27.8601C1.93602 28.118 1.82148 28.3473 1.57808 28.4619C1.37048 28.5551 1.27742 28.7055 1.21299 28.899C1.13425 29.1139 1.06266 29.3288 0.969599 29.5366C0.847902 29.8017 0.776316 30.0883 0.497128 30.2674C0.0747681 30.5469 -0.0111357 30.9839 0.00318162 31.4568C0.00318162 31.5929 -0.025453 31.7649 0.0890854 31.8509C0.425542 32.1231 0.633143 32.5602 1.14141 32.6247C1.32753 32.6461 1.51366 32.7536 1.67115 32.8683C2.0434 33.1262 2.44428 33.3268 2.8738 33.4916C2.98118 33.5346 3.05277 33.6062 3.13151 33.6707C3.34627 33.8355 3.51808 34.0791 3.74715 34.1866C4.21247 34.4015 4.74221 34.4732 5.13593 34.8242C5.5225 35.161 6.04508 35.1252 6.46028 35.3974C6.78958 35.6124 6.97571 35.8345 6.90412 36.2357C6.86833 36.4292 6.81106 36.6154 6.78242 36.8161C6.68936 37.6543 6.95423 38.4855 6.86117 39.3309C6.83253 39.6032 6.93991 39.8969 6.77526 40.1692C6.76095 40.1978 6.77526 40.248 6.77526 40.2838C6.86117 40.771 6.81821 41.2797 7.00434 41.7526C7.02582 41.8099 7.0115 41.8959 6.98286 41.9532C6.82537 42.2255 6.89696 42.4906 6.93275 42.7772C6.96139 43.0494 7.0974 43.293 7.08309 43.5725C7.06877 44.0668 7.04729 44.554 6.94707 45.0341C6.91844 45.1702 6.95423 45.3422 7.05445 45.4568C7.23342 45.6646 7.22626 45.901 7.17615 46.1231C7.11888 46.3739 7.12604 46.6032 7.20478 46.8396C7.25489 46.9901 7.31216 47.1477 7.24773 47.3053C7.14035 47.5847 7.18331 47.8857 7.12604 48.1722C7.07593 48.4302 7.31216 48.6809 7.22626 48.8816C7.12604 49.1252 7.21194 49.2828 7.26921 49.4762C7.43386 50.0924 7.72736 50.2859 8.34301 50.1641C8.44323 50.1426 8.52197 50.1712 8.5864 50.2429C8.84411 50.508 9.23784 50.6011 9.4168 50.9593C9.45976 51.0453 9.55998 51.0811 9.6602 51.1098C9.80337 51.1528 10.011 51.1886 10.0539 51.2889C10.2186 51.6902 10.6123 51.7618 10.913 51.9051C11.3783 52.1272 11.7505 52.4783 12.2302 52.6789C12.5451 52.8079 12.8028 53.0873 13.1107 53.2664C13.2753 53.3596 13.4686 53.3309 13.6261 53.4742C13.9411 53.7679 14.2059 54.162 14.7142 54.1692C14.7572 54.1692 14.8073 54.2122 14.8431 54.2408C15.2153 54.5847 15.6663 54.8068 16.103 55.0433C16.2462 55.1149 16.2891 55.294 16.4609 55.3442C16.7473 55.4302 17.0336 55.5162 17.1267 55.8672C17.1338 55.9102 17.2126 55.9532 17.2627 55.9675C17.728 56.075 18.1289 56.3473 18.5727 56.5192C18.9163 56.6482 19.2743 56.8918 19.5391 57.207C19.6322 57.3217 19.7396 57.4291 19.8971 57.4578C20.2192 57.5151 20.4196 57.7444 20.6272 57.9665C20.6845 58.031 20.7203 58.0811 20.8134 58.0811C21.3288 58.0811 21.7297 58.4036 22.0303 58.7331C22.3954 59.1344 22.8607 59.2705 23.3117 59.4066C23.6196 59.4998 23.8415 59.6502 23.9918 59.8652C24.1779 60.1303 24.4142 60.2091 24.6862 60.2592C24.9725 60.3166 25.1945 60.51 25.352 60.6963C25.488 60.8539 25.624 60.9614 25.7958 61.0402C25.9891 61.1262 26.2038 61.1763 26.347 61.334C26.4902 61.4916 26.6548 61.5632 26.8481 61.6349C27.1989 61.7639 27.4566 62.0576 27.8217 62.1651C27.8288 62.1651 27.836 62.1794 27.8432 62.1866C28.2727 62.6093 28.8024 62.8529 29.3823 62.989C29.5684 63.032 29.9908 62.7669 30.091 62.5878C30.1984 62.3944 30.3057 62.2439 30.5921 62.2797C30.8641 62.3155 31.1075 62.1579 31.3437 62.0003C31.6015 61.8283 31.8448 61.5561 32.1527 61.5632C32.5178 61.5704 32.7755 61.4128 33.0833 61.2766C33.4198 61.1262 33.6846 60.7966 34.0998 60.8253C34.3289 60.8396 34.4076 60.5387 34.6081 60.553C35.2237 60.596 35.5745 60.0586 36.1042 59.9153C36.3333 59.8508 36.5481 59.6789 36.7557 59.6216C37.1423 59.5141 37.4286 59.249 37.7865 59.0985C38.2232 58.9194 38.6527 58.7045 39.1037 58.5755C39.3829 58.4967 39.6048 58.3462 39.8339 58.2173C40.0701 58.0812 40.3135 57.9307 40.5498 57.902C41.0151 57.8447 41.3515 57.5295 41.7596 57.3718C41.9743 57.293 42.139 57.0781 42.4039 57.2285C42.454 57.2572 42.5327 57.2285 42.5685 57.1856C42.6902 57.0279 42.8763 56.9921 43.0338 56.9061C43.2128 56.813 43.4275 56.8058 43.5707 56.6768C43.8929 56.4046 44.3367 56.3544 44.6445 56.075C44.8736 55.8672 45.1599 55.946 45.4105 55.8744C45.8901 55.7311 46.3411 55.5735 46.6776 55.1866C46.7205 55.1364 46.8064 55.0791 46.8565 55.0934C47.057 55.1436 47.193 55.0075 47.3505 54.9501C47.6368 54.8498 47.9017 54.6492 48.2382 54.6994C48.3312 54.7137 48.367 54.6206 48.4171 54.5632C48.6748 54.248 48.9755 54.0044 49.4122 54.0474C49.8059 54.0832 50.1209 53.9399 50.4001 53.682C50.758 53.3524 51.1589 53.1446 51.66 53.1446C51.796 53.1446 51.9535 53.1303 52.0537 53.03C52.3329 52.7219 52.7052 52.5929 53.0846 52.4926C53.3638 52.421 53.6931 52.4281 53.8577 52.1559C54.0367 51.8621 54.2872 51.9123 54.5449 51.9123C54.638 51.9123 54.7167 51.9123 54.7883 51.8406C55.0603 51.5898 55.4326 51.5397 55.7619 51.4179C55.9695 51.3391 56.1914 51.2818 56.3203 51.1241C56.5565 50.8375 56.9216 50.7731 57.2079 50.6656C57.4943 50.5581 57.8307 50.4291 58.1672 50.422C58.2746 50.422 58.339 50.3503 58.4106 50.2787C58.6826 50.0136 58.6612 49.6983 58.6898 49.3401C58.7256 48.7311 58.6898 48.1293 58.6683 47.5274C58.6468 47.0044 58.6898 46.4885 58.6683 45.9655C58.654 45.6717 58.6325 45.3708 58.6826 45.0627C58.7471 44.6543 58.7471 44.2173 58.6683 43.8232C58.5824 43.422 58.4464 43.0351 58.4392 42.6124C58.4392 42.3544 58.4965 42.0893 58.4679 41.8601C58.4178 41.4732 58.4178 41.0934 58.4464 40.7065C58.4607 40.5131 58.475 40.3196 58.3605 40.1334C58.3104 40.0474 58.2961 39.9256 58.3247 39.8181C58.4249 39.4455 58.2388 39.0658 58.339 38.6932C58.3605 38.6073 58.339 38.5141 58.2746 38.4425C58.2173 38.3708 58.2531 38.3063 58.2531 38.2275C58.2674 37.8549 58.3891 37.4537 58.2961 37.1241C58.1958 36.7444 58.2961 36.336 58.1028 35.9778C58.0455 35.8703 58.1457 35.7987 58.2316 35.7342C58.3462 35.6482 58.4965 35.6124 58.6254 35.6124C59.1265 35.6267 59.5202 35.4046 59.8853 35.0893C60.0356 34.9604 60.2003 34.8314 60.4007 35.0249C60.4651 35.0893 60.551 35.0177 60.6226 35.0105C60.866 34.9962 61.0307 34.6881 61.2669 34.7956C61.6177 34.9604 61.9255 34.7454 62.0973 34.6021C62.5769 34.2081 63.1425 34.2009 63.6794 34.0433C63.7295 34.0289 63.8082 34.0433 63.8512 34.0648C63.9872 34.1436 64.0874 34.0719 64.2091 34.0289C64.567 33.9 64.8247 33.5417 65.2471 33.5776C65.4404 33.5991 65.605 33.5274 65.7697 33.4056C66.0274 33.205 66.3066 33.0545 66.6645 33.1477C66.7719 33.1763 66.8936 33.1262 66.9938 33.0474C67.1656 32.9184 67.3661 32.8038 67.5379 32.7393C67.7312 32.6676 67.7884 32.6032 67.8385 32.4312C67.8815 32.2736 68.0605 32.1589 67.9388 31.9512L67.9674 31.9798ZM41.9672 15.945C42.0316 15.9092 42.0817 15.8375 42.139 15.7874C42.232 15.7157 42.318 15.5868 42.4396 15.6154C42.8047 15.7157 43.2199 15.6154 43.5063 16.0167C43.7354 16.3319 44.0002 16.6042 43.9788 17.0269C43.943 17.3923 43.7783 17.7935 43.492 17.9297C43.1627 18.0873 42.7833 18.2664 42.318 18.0945C41.7954 17.8938 41.6594 17.464 41.4732 17.0556C41.3229 16.7188 41.6164 16.1313 41.96 15.9379L41.9672 15.945ZM36.6555 16.8048C36.813 16.5827 37.0563 16.4251 37.1279 16.1385C37.1494 16.0597 37.2425 16.0382 37.3212 16.0167C37.8939 15.8519 38.4165 15.859 38.9104 16.2818C39.1825 16.5182 39.0822 16.8335 39.2111 17.0699C39.5189 17.6144 38.9033 17.8437 38.8388 18.2521C38.8317 18.3094 38.6814 18.3596 38.5883 18.3811C38.302 18.4599 38.0084 18.4885 37.7364 18.6247C37.5789 18.7035 37.4286 18.5888 37.3141 18.4814C37.0205 18.2019 36.6698 17.9512 36.7056 17.4711C36.7056 17.421 36.6626 17.3636 36.6268 17.3135C36.5051 17.1344 36.5266 16.9767 36.6555 16.7976V16.8048ZM11.2781 19.6134C12.0011 19.7209 12.6811 19.4701 13.3827 19.3984C13.848 19.3483 14.299 19.2408 14.7643 19.1692C15.337 19.0832 15.9455 19.076 16.4538 18.6891C16.6614 18.5315 16.9405 18.6891 17.1911 18.6247C17.2698 18.6032 17.3987 18.7321 17.3701 18.8539C17.2627 19.248 17.1983 19.6421 17.0264 20.0289C16.9262 20.2582 16.7687 20.5233 16.826 20.8242C16.869 21.0965 16.8618 21.3759 16.869 21.6482C16.869 21.727 16.8904 21.8273 16.7831 21.8416C16.6828 21.856 16.6971 21.7628 16.6828 21.6983C16.6614 21.6052 16.5826 21.5622 16.5039 21.5694C16.103 21.5837 15.7307 21.3616 15.3227 21.4118C15.2583 21.4189 15.2153 21.3688 15.1652 21.3401C14.7572 21.1108 14.3921 20.8027 13.848 20.8457C13.4471 20.8744 13.1178 20.5878 12.8386 20.3012C12.7456 20.2081 12.6525 20.1722 12.5237 20.1651C12.1586 20.1436 11.8436 20.0003 11.5716 19.7639C11.4857 19.685 11.3926 19.7065 11.2924 19.728C11.2208 19.7424 11.1062 19.7925 11.1062 19.6707C11.1062 19.5346 11.2136 19.6134 11.2852 19.6134H11.2781ZM7.93496 34.3227C7.82758 34.2511 7.66294 34.2224 7.52692 34.1937C7.14751 34.1078 6.88264 33.857 6.61777 33.6134C6.54619 33.5489 6.48176 33.4988 6.3887 33.4916C6.19541 33.4773 6.03076 33.4271 5.92338 33.2408C5.83748 33.1047 5.67999 33.2193 5.56545 33.1692C5.15741 33.0044 4.73505 32.8683 4.3628 32.6318C4.25542 32.5602 4.1552 32.4814 4.01202 32.51C3.9476 32.5243 3.90464 32.4885 3.86169 32.4384C3.59682 32.0873 3.30332 31.8007 2.80937 31.9082C2.7521 31.9225 2.70915 31.8938 2.68767 31.8509C2.59461 31.6932 2.43712 31.6789 2.27963 31.6502C2.05055 31.6144 1.96465 31.4998 1.97897 31.292C2.07919 31.0126 2.05055 30.6472 2.37269 30.4179C2.52303 30.3104 2.46576 30.074 2.5445 29.902C2.60177 29.7731 2.67336 29.6513 2.79505 29.6441C2.97402 29.6298 3.02413 29.508 3.08856 29.3933C3.38922 28.8273 3.66841 28.2541 4.08361 27.7454C4.28405 27.5018 4.34132 27.1651 4.49881 26.8785C4.64199 26.6277 4.79948 26.4199 5.00708 26.2193C5.23615 26.0044 5.4366 25.7321 5.46523 25.3954C5.47955 25.1948 5.57977 25.073 5.70862 24.9368C5.96634 24.6574 6.23836 24.3923 6.34574 23.9982C6.41017 23.7475 6.74663 23.6615 6.86117 23.4107C6.87548 23.3749 6.93991 23.3534 6.93991 23.3248C6.88264 22.8089 7.5126 22.6083 7.47681 22.0924C7.46965 21.9419 7.58419 21.813 7.74884 21.7342C7.9636 21.6267 8.06382 21.3903 8.14972 21.1968C8.38596 20.6881 8.4647 20.638 8.98729 20.8601C9.1233 20.9174 9.27363 20.946 9.4168 20.9604C9.68167 20.9819 9.85348 21.1467 10.0682 21.2756C10.2973 21.4189 10.5264 21.6124 10.8772 21.5551C11.1062 21.5192 11.364 21.6697 11.5787 21.8273C11.6646 21.8918 11.7434 21.9921 11.8579 21.9706C12.1156 21.9348 12.3017 22.0064 12.4091 22.25C12.4234 22.2787 12.4807 22.3145 12.5093 22.3074C12.9532 22.1999 13.2753 22.6369 13.7192 22.5725C13.9554 22.5366 14.1129 22.7014 14.299 22.8161C14.5853 22.988 14.9146 23.0668 15.2368 23.1098C15.5446 23.1528 15.6949 23.4251 15.9598 23.5325C16.1817 23.6257 16.4323 23.6687 16.647 23.7188C17.098 23.8335 17.4631 24.0914 17.8783 24.2418C18.0573 24.3063 18.2291 24.4425 18.4367 24.2992C18.451 24.292 18.4868 24.2777 18.494 24.2848C18.8018 24.6001 19.2528 24.5356 19.6179 24.7219C19.9257 24.8795 20.1619 25.2163 20.5986 25.1303C20.8205 25.0873 21.0353 25.2521 21.2572 25.3381C21.5937 25.4742 21.9158 25.6748 22.2737 25.7393C22.4455 25.7679 22.5744 25.8539 22.7104 25.9542C22.8894 26.0832 23.0898 26.1907 23.3404 26.162C23.548 26.1405 23.7556 26.162 23.8701 26.3913C23.8773 26.4056 23.8988 26.4343 23.9131 26.4343C24.45 26.4486 24.8222 26.9716 25.3877 26.9C25.6455 26.8713 25.9032 26.9573 26.1322 27.0648C26.39 27.1866 26.6477 27.2582 26.9197 27.2869C26.9555 27.2869 27.0128 27.2869 27.0342 27.3012C27.4208 27.6308 27.9219 27.6881 28.3657 27.8816C28.5877 27.9819 28.874 27.8816 29.0458 28.1108C29.0745 28.1467 29.189 28.1538 29.1317 28.2326C28.8955 28.5407 28.7666 28.9419 28.4373 29.1497C27.972 29.4435 27.7358 29.8662 27.5711 30.3606C27.5139 30.5254 27.3421 30.6543 27.2275 30.7976C27.1774 30.8621 27.0843 30.9194 27.0843 30.9767C27.0843 31.3708 26.7193 31.4783 26.526 31.7291C26.2325 32.1088 25.9461 32.5028 25.7099 32.9184C25.5667 33.1692 25.3949 33.377 25.173 33.5346C25.037 33.6349 24.9797 33.7209 25.0441 33.8713C25.1086 34.0218 25.0298 34.1078 24.9153 34.1937C24.45 34.5162 24.2066 35.032 23.8415 35.4476C23.7413 35.555 23.7771 35.7485 23.6983 35.8918C23.6267 36.0208 23.5838 36.1569 23.412 36.1999C23.3117 36.2214 23.2831 36.3145 23.2688 36.4077C23.19 36.8805 22.8965 37.1958 22.5243 37.4609C22.3596 37.5827 22.2379 37.6973 22.2093 37.9481C22.1807 38.2204 22.0375 38.5213 21.7297 38.6431C21.5722 38.7076 21.5364 38.8222 21.4648 38.9583C21.3216 39.2521 21.2357 39.6103 20.8563 39.725C20.7489 39.7536 20.7132 39.8468 20.6845 39.9471C20.6416 40.1334 20.5485 40.291 20.4483 40.4486C20.3266 40.6492 20.2192 40.5847 20.0617 40.5131C19.5463 40.2695 19.1382 39.8396 18.5656 39.6748C18.2363 39.5817 17.9284 39.3739 17.6135 39.2163C17.4059 39.1088 17.2126 39.0085 16.9835 38.9368C16.6757 38.8437 16.4681 38.5643 16.2032 38.378C16.0672 38.2848 15.9383 38.2132 15.7737 38.2132C15.4945 38.2132 15.2583 38.1272 15.0721 37.9123C14.9075 37.7188 14.6498 37.6687 14.435 37.554C14.0341 37.3391 13.5975 37.1815 13.1894 36.9665C12.9174 36.8232 12.6167 36.6871 12.3447 36.5295C11.951 36.3002 11.4857 36.2644 11.1134 35.9491C10.913 35.7843 10.6051 35.684 10.3832 35.4977C10.326 35.4476 10.2544 35.4762 10.1828 35.4762C9.83916 35.4906 9.63872 35.3616 9.51702 35.0392C9.49555 34.9747 9.46691 34.9317 9.40249 34.9174C8.87991 34.8171 8.40743 34.6093 7.9636 34.3155L7.93496 34.3227ZM29.2105 34.0576C29.2534 34.3872 29.2606 34.7096 29.1317 35.0177C29.0673 35.1825 29.0458 35.3258 29.1174 35.4762C29.2749 35.8273 29.2248 36.1856 29.1818 36.5438C29.1532 36.7874 29.1389 37.0238 29.2105 37.2746C29.2821 37.511 29.3608 37.7475 29.1747 38.0197C29.0601 38.1917 29.0172 38.4496 29.1102 38.7004C29.2821 39.1804 29.1102 39.682 29.1532 40.1763C29.189 40.6349 29.1102 41.1006 29.0673 41.5591C29.0458 41.7956 28.8669 42.0249 28.9957 42.2756C29.1747 42.6339 29.0601 42.9993 29.0243 43.3647C29.0172 43.4506 29.0387 43.5223 29.0673 43.5939C29.1031 43.6871 29.1317 43.7874 29.0673 43.8734C28.874 44.1026 28.9671 44.3534 28.9742 44.6113C28.9957 45.1272 29.2749 45.6359 29.1604 46.1446C29.0601 46.5888 29.146 47.0402 28.9886 47.4701C28.9313 47.6206 28.9456 47.8642 29.0315 47.986C29.2534 48.2869 29.0172 48.5376 28.9742 48.7884C28.917 49.118 28.8382 49.4834 28.9456 49.7557C29.1389 50.2572 29.0816 50.7301 29.0458 51.2244C29.0243 51.5039 29.0387 51.812 29.01 52.0771C28.9742 52.4711 29.0601 52.8222 29.1174 53.1948C29.146 53.3739 29.1389 53.553 28.9456 53.6676C28.8597 53.7178 28.8096 53.8181 28.8669 53.8969C29.0888 54.1907 28.9384 54.4844 28.8812 54.771C28.8167 55.1364 28.8812 55.4947 28.9313 55.8457C28.9885 56.3043 28.9026 56.7413 28.917 57.1856C28.9313 57.6799 28.7809 58.1815 28.9456 58.6758C29.0172 58.8836 28.9957 59.1415 28.9742 59.3636C28.917 59.8795 28.9026 60.467 29.0315 60.9757C28.6593 60.9327 28.5376 60.5673 28.2297 60.4599C28.0866 60.4097 27.9577 60.3166 27.7931 60.3166C27.6714 60.3166 27.5711 60.2378 27.4852 60.1518C27.3492 60.0156 27.206 59.9153 26.9984 59.9225C26.8266 59.9225 26.6978 59.815 26.6691 59.6359C26.6477 59.5069 26.5904 59.421 26.4544 59.3851C26.2396 59.3278 26.0607 59.1917 25.8745 59.0699C25.6383 58.9051 25.3949 58.7117 25.1372 58.6185C24.8437 58.5182 24.6647 58.2889 24.407 58.16C23.7914 57.8519 23.2831 57.3575 22.603 57.1641C22.5601 57.1497 22.5028 57.1211 22.4885 57.0781C22.3382 56.727 22.0303 56.6124 21.7082 56.5049C21.5937 56.4691 21.5078 56.3544 21.4075 56.2756C21.1641 56.075 20.8492 56.1037 20.57 55.9962C20.2622 55.8744 20.0259 55.6666 19.8112 55.4445C19.532 55.1651 19.2456 54.943 18.8447 54.8857C18.6873 54.8642 18.587 54.7352 18.4797 54.642C18.3436 54.5131 18.1933 54.3913 18.0287 54.3125C17.5633 54.0975 17.1983 53.682 16.6614 53.6103C16.6184 53.6103 16.5755 53.5602 16.5468 53.5315C16.0386 53.03 15.3871 52.7147 14.7715 52.3851C14.4279 52.206 14.0771 51.9839 13.7335 51.8549C13.1966 51.6615 12.8673 51.1815 12.3375 51.0167C11.9152 50.8877 11.6431 50.4865 11.1993 50.3933C11.142 50.379 11.0848 50.3217 11.0347 50.2715C10.8485 50.0637 10.6624 49.8918 10.3546 49.8631C10.147 49.8416 9.96802 49.6625 9.80337 49.5479C9.5385 49.3544 9.245 49.2756 8.94433 49.1968C8.76537 49.1467 8.66515 48.8887 8.78684 48.6809C8.89422 48.5018 8.92286 48.3657 8.794 48.1722C8.72241 48.0648 8.75105 47.8857 8.74389 47.7352C8.7081 47.0259 8.64367 46.3237 8.55061 45.6216C8.52197 45.4425 8.52197 45.2705 8.5864 45.0986C8.70094 44.7905 8.54345 44.4752 8.57924 44.16C8.61504 43.8375 8.69378 43.4936 8.44323 43.207C8.5864 42.942 8.41459 42.6983 8.40028 42.4476C8.38596 42.1753 8.50766 41.8386 8.42891 41.6523C8.19268 41.1436 8.39312 40.6277 8.34301 40.1262C8.2929 39.6175 8.02803 39.0945 8.23563 38.5571C8.27858 38.4496 8.22847 38.3493 8.17836 38.249C8.01371 37.9123 7.95644 37.5684 8.13541 37.2244C8.22847 37.0453 8.11393 36.9164 8.05666 36.7802C7.99223 36.6369 7.9636 36.5008 8.07098 36.4005C8.19983 36.2859 8.27858 36.4292 8.39312 36.4936C8.87991 36.7946 9.35954 37.16 9.88928 37.3319C10.7626 37.6257 11.5358 38.0914 12.3518 38.4783C12.5738 38.5786 12.6883 38.8079 12.9174 38.8938C13.1679 38.987 13.4113 39.0873 13.6547 39.1876C13.7192 39.2163 13.7979 39.2306 13.8337 39.2807C14.12 39.6032 14.5281 39.6103 14.886 39.7536C15.2296 39.8897 15.6019 40.0402 15.831 40.3626C15.8882 40.4486 15.9598 40.4629 16.06 40.4629C16.2891 40.4629 16.4967 40.5059 16.6399 40.7352C16.7687 40.9286 17.0336 40.8857 17.234 40.9501C17.728 41.1006 18.2219 41.3227 18.5512 41.6666C18.8376 41.9675 19.1454 41.9317 19.4389 42.0535C19.5964 42.118 19.7897 42.161 19.9042 42.2828C20.2192 42.6267 20.5413 42.4547 20.9064 42.3974C21.4362 42.3186 21.6295 41.9819 21.8227 41.5735C22.0447 41.0934 22.4169 40.6994 22.5887 40.1978C22.603 40.1548 22.646 40.1047 22.6818 40.0904C23.054 39.9327 23.1757 39.596 23.2759 39.2521C23.3332 39.0515 23.4263 38.9153 23.641 38.8723C23.7269 38.8509 23.7985 38.8079 23.8272 38.7004C23.9775 38.0556 24.3927 37.5469 24.7435 37.0095C24.8866 36.7874 25.0227 36.5151 25.2374 36.3933C25.5739 36.1927 25.7743 35.9133 25.9032 35.5765C26.0106 35.29 26.2969 35.1538 26.3828 34.8457C26.4902 34.4445 26.8839 34.2081 27.0271 33.8212C27.0271 33.8068 27.0486 33.7782 27.0629 33.7782C27.4566 33.6564 27.4709 33.3125 27.5353 32.9829C27.5783 32.7536 27.7215 32.5315 27.9219 32.4384C28.2226 32.2951 28.3085 32.0013 28.4946 31.7864C28.8096 31.421 29.0029 30.9839 29.2677 30.4967C29.368 30.7905 29.2677 30.9911 29.2677 31.1845C29.2749 31.815 29.2176 32.4384 29.2033 33.0689C29.1961 33.4056 29.1818 33.7495 29.2248 34.0863L29.2105 34.0576ZM29.7545 26.7209C29.2749 26.5847 28.7809 26.4486 28.33 26.2408C28.108 26.1405 27.8575 26.033 27.6714 25.8826C27.4208 25.6676 27.1273 25.7321 26.8624 25.6605C26.4401 25.5458 26.0535 25.3667 25.7099 25.1016C25.445 24.901 25.1229 24.8222 24.8222 24.7004C24.7936 24.6932 24.7578 24.6789 24.7363 24.7004C24.2925 24.9942 23.9775 24.5858 23.6124 24.4783C23.4835 24.4425 23.4478 24.206 23.2616 24.1559C22.8894 24.0699 22.5529 23.8335 22.152 23.8549C22.0733 23.8549 21.9945 23.8478 21.9301 23.7976C21.4505 23.4895 20.8921 23.3821 20.3624 23.1958C19.9185 23.0382 19.4532 22.8877 19.0452 22.6369C18.9736 22.5939 18.9092 22.5653 18.8304 22.551C18.5011 22.4865 18.3866 22.336 18.3937 21.899C18.4653 21.684 18.4797 21.3616 18.451 21.0249C18.4295 20.7311 18.7374 20.5377 18.7803 20.2439C18.7946 20.1293 18.8233 20.0218 18.8304 19.9C18.8734 19.4056 18.8877 18.9112 19.3101 18.5315C19.5534 18.3166 19.4962 17.987 19.489 17.6932C19.489 17.5786 19.5033 17.4783 19.5749 17.3923C19.6751 17.2777 19.6966 17.1487 19.7181 16.9911C19.7467 16.7833 19.7038 16.5469 19.9472 16.3606C20.1047 16.2459 20.1118 15.945 20.1619 15.7372C20.2622 15.3432 20.4554 14.9849 20.5199 14.5837C20.5342 14.4906 20.57 14.3831 20.6272 14.3114C20.9351 13.9246 20.7489 13.5878 20.57 13.2152C20.3839 12.8212 19.9901 12.7639 19.6966 12.5417C19.4174 12.334 19.1597 12.0474 19.0094 11.7393C18.8949 11.4957 18.9235 11.1804 18.6586 10.9942C18.63 10.9798 18.6157 10.9225 18.6228 10.8867C18.7159 10.3565 18.5154 9.8048 18.7374 9.28893C18.809 9.1313 18.8447 8.97368 18.7803 8.80173C18.7588 8.73724 18.7803 8.66559 18.7803 8.59395C18.8662 8.00643 18.945 7.41176 19.038 6.82424C19.0595 6.68095 19.1526 6.55198 19.1884 6.41585C19.2528 6.19374 19.3602 5.9788 19.2385 5.74236C19.174 5.61339 19.2671 5.52742 19.3387 5.41994C19.6036 5.02588 19.6751 4.58883 19.6322 4.11595C19.6107 3.84369 19.5892 3.54993 19.6608 3.29917C19.7611 2.96242 19.7181 2.64001 19.6751 2.31759C19.6394 2.031 19.8398 1.80172 20.1333 1.85188C20.4912 1.90203 20.7561 2.12414 20.9852 2.36058C21.2787 2.6615 21.6509 2.89794 21.8943 3.24185C22.1449 3.59292 22.5314 3.6789 22.8894 3.83652C23.1185 3.93683 23.3905 3.88668 23.5838 3.79354C24.0204 3.57859 24.5001 3.60009 24.9224 3.46396C25.4235 3.29917 25.9103 3.46396 26.39 3.32066C26.8696 3.17736 27.3922 3.20602 27.8861 3.27051C28.2083 3.3135 28.5733 3.28484 28.874 3.56426C29.0243 3.70756 29.3823 3.63591 29.5326 3.51411C29.9908 3.12721 30.4919 2.79763 30.9429 2.4179C31.0001 2.36774 31.0216 2.30326 31.0216 2.23161C31.0216 2.10981 31.1004 2.031 31.2006 2.031C31.5585 2.0095 31.8377 1.79456 32.1527 1.66559C32.3817 1.57245 32.5106 1.65126 32.6037 1.80172C32.7039 1.96652 32.7468 2.15996 32.7254 2.36774C32.6967 2.71165 32.6323 3.05556 32.6538 3.39231C32.6753 3.74338 32.5893 4.0443 32.4963 4.37388C32.4319 4.60316 32.2457 4.87542 32.5536 5.09036C32.5965 5.11902 32.5893 5.17634 32.5536 5.22649C32.4175 5.45577 32.5106 5.65638 32.5965 5.89282C32.711 6.20807 32.7254 6.55915 32.7182 6.90306C32.7182 6.96037 32.6896 7.03202 32.7397 7.07501C33.0403 7.31861 33.069 7.68402 33.1835 8.0136C33.3052 8.35034 33.1549 8.67276 33.1835 9.00234C33.1835 9.01667 33.1692 9.04533 33.1549 9.05249C32.6824 9.30326 32.7039 9.84062 32.4605 10.2275C32.4032 10.3207 32.3817 10.421 32.4032 10.5428C32.4247 10.6287 32.439 10.7362 32.4032 10.8079C32.2171 11.1446 32.346 11.4814 32.3316 11.8253C32.3173 12.1548 32.346 12.4414 32.5607 12.7137C32.6251 12.7997 32.6108 12.9645 32.6037 13.0863C32.5965 13.294 32.6108 13.4803 32.6824 13.6881C32.797 14.0034 32.4963 14.204 32.3674 14.4476C32.1598 14.856 31.852 15.2214 31.8878 15.7229C31.8878 15.7946 31.8592 15.8734 31.8305 15.9522C31.5943 16.6185 31.4368 17.3063 31.4082 18.0156C31.3939 18.2521 31.4082 18.4814 31.5513 18.6963C31.6874 18.9256 31.6158 19.2193 31.6945 19.4773C31.7446 19.6349 31.7232 19.7997 31.8448 19.943C31.9379 20.0576 31.852 20.1508 31.7375 20.2296C31.4726 20.4015 31.1791 20.5162 30.9285 20.7168C30.7281 20.8744 30.6422 21.0678 30.7854 21.2828C30.9142 21.4762 31.1218 21.4261 31.3223 21.3616C31.6444 21.2541 31.9952 21.204 32.2887 21.0177C32.3388 20.989 32.4104 20.9819 32.439 21.0607C32.4605 21.118 32.4032 21.1467 32.3674 21.1753C32.0954 21.3974 31.8234 21.6267 31.5513 21.8488C31.4368 21.9419 31.3867 22.0709 31.3724 22.2142C31.3437 22.465 31.5585 22.6226 31.7947 22.5438C32.1956 22.4077 32.618 22.336 32.9258 21.9993C32.9688 21.9491 33.0189 21.9205 33.0761 21.9778C33.1262 22.0279 33.1262 22.0852 33.0761 22.1354C32.8184 22.422 32.7325 22.8017 32.5607 23.1313C32.4963 23.2459 32.4104 23.3677 32.5392 23.4752C32.6609 23.5899 32.8184 23.5684 32.9544 23.5039C33.0117 23.4752 33.069 23.4251 33.1119 23.3677C33.3768 23.0095 33.7848 22.7946 34.064 22.4435C34.1213 22.3718 34.2144 22.2859 34.2859 22.379C34.3719 22.5008 34.6296 22.4793 34.558 22.7086C34.4291 23.1528 34.4076 23.6257 34.1499 24.0269C33.9566 24.3278 34.0712 24.6646 34.0569 24.9798C34.0497 25.2951 34.0712 25.6103 33.7419 25.8109C33.6202 25.8826 33.5486 25.9256 33.4054 25.8539C33.1978 25.7536 33.0547 25.9542 32.8829 26.0259C32.4748 26.1978 32.0954 26.4916 31.6158 26.2552C31.5657 26.2337 31.5156 26.2193 31.4726 26.2552C31.1934 26.4629 30.8283 26.4916 30.5348 26.6707C30.2986 26.814 30.0266 26.8212 29.7474 26.7424L29.7545 26.7209ZM56.8786 48.6523C56.9574 48.8027 57.029 48.9389 56.7283 48.9317C56.5708 48.9317 56.399 49.032 56.2487 49.1395C55.948 49.3688 55.6617 49.641 55.2608 49.6912C55.2322 49.6912 55.1964 49.7055 55.182 49.727C54.7167 50.2787 53.9436 50.1641 53.3995 50.5366C53.0345 50.7874 52.5763 50.8519 52.2255 51.1241C52.1396 51.1886 52.0537 51.2603 51.9607 51.2173C51.5526 51.0453 51.4381 51.4251 51.2162 51.6042C51.166 51.64 51.1589 51.7403 51.073 51.7188C50.6793 51.64 50.3571 51.8908 49.992 51.9624C49.8274 51.9911 49.7773 52.206 49.6556 52.3207C49.584 52.3923 49.5196 52.4711 49.4122 52.464C48.9469 52.4353 48.5746 52.7291 48.1451 52.8437C47.6154 52.9798 47.193 53.3524 46.6489 53.4527C46.5129 53.4742 46.4342 53.596 46.3411 53.682C46.1908 53.8253 46.0333 53.9256 45.8257 53.9327C45.5895 53.9471 45.3962 54.0259 45.1886 54.1548C44.8736 54.3483 44.487 54.4199 44.1506 54.5847C43.8642 54.728 43.5278 54.814 43.3345 55.1149C43.2701 55.2152 43.1698 55.2081 43.0696 55.1937C42.6902 55.1364 42.3895 55.2654 42.1891 55.595C42.1605 55.6451 42.1175 55.6809 42.0674 55.6666C41.6164 55.5018 41.3873 55.9245 41.0437 56.0535C40.5999 56.2255 40.2205 56.5336 39.7194 56.5622C39.5046 56.5765 39.2898 56.6697 39.1109 56.8345C38.8961 57.0351 38.5955 57.0781 38.3234 57.1497C38.1731 57.1855 38.0586 57.2214 38.0371 57.3933C38.0299 57.4721 37.9798 57.5438 37.9082 57.5223C37.4572 57.3933 37.2282 57.8089 36.8917 57.945C36.6984 58.0238 36.5481 58.2029 36.2975 58.1385C36.1472 58.1026 36.0899 58.3033 35.9539 58.3391C35.6533 58.4322 35.3597 58.554 35.0519 58.6328C34.8228 58.6902 34.6439 58.8406 34.4363 58.9338C33.9209 59.1559 33.4198 59.4425 32.933 59.7219C32.4462 60.0013 31.9809 60.3882 31.3437 60.3022C31.2149 60.2879 31.0717 60.4025 30.9357 60.4527C30.7353 60.5243 30.6207 60.4527 30.6207 60.2449C30.6207 59.6861 30.6422 59.12 30.6207 58.5612C30.6064 58.2101 30.6207 57.8662 30.6995 57.5223C30.7209 57.422 30.7138 57.3074 30.7711 57.2142C30.8498 57.0781 30.8426 56.9563 30.7424 56.8273C30.6565 56.727 30.6422 56.5837 30.7138 56.4977C30.9858 56.1753 30.7854 55.8601 30.7138 55.552C30.6923 55.4517 30.6637 55.3585 30.7424 55.2726C30.8212 55.1866 30.814 55.0934 30.7711 54.9931C30.7209 54.8785 30.6995 54.728 30.7496 54.6492C30.9285 54.334 30.7997 54.0044 30.7782 53.7106C30.7567 53.4025 30.7496 53.1733 30.9357 52.9297C30.9787 52.8723 30.9715 52.7864 30.9214 52.729C30.7997 52.5929 30.9071 52.464 30.9071 52.335C30.9071 52.0627 30.7997 51.7833 30.8426 51.4967C30.3988 51.1528 30.7854 50.8519 30.9071 50.551C30.9572 50.4291 31.0001 50.3503 30.9214 50.2285C30.6995 49.8846 30.6422 49.5407 30.7997 49.1252C30.8856 48.8959 30.9357 48.6165 30.8212 48.3012C30.678 47.9071 30.6995 47.4558 30.6565 47.0259C30.6422 46.8969 30.8068 46.8324 30.8068 46.682C30.8068 46.4742 30.7997 46.2807 30.7424 46.073C30.6064 45.5714 30.5778 45.0197 30.6637 44.5325C30.7209 44.2173 30.678 43.9092 30.7281 43.6011C30.7711 43.3432 30.7782 43.0924 30.6851 42.8416C30.6565 42.7628 30.678 42.6625 30.6923 42.5765C30.7854 42.1037 30.8999 41.6308 30.7066 41.1508C30.6494 41.0075 30.678 40.8355 30.7496 40.7495C31.0001 40.4558 30.7997 40.1763 30.7567 39.8969C30.7281 39.6963 30.6995 39.5028 30.7353 39.2879C30.7854 39.0156 30.7567 38.7219 30.7209 38.4425C30.678 38.0771 30.7281 37.7117 30.6708 37.3462C30.635 37.1241 30.8927 36.9522 30.8426 36.6871C30.8283 36.5868 30.857 36.4865 30.7854 36.3862C30.7424 36.3217 30.7138 36.2357 30.7138 36.1641C30.7281 35.7198 30.5849 35.2756 30.6995 34.8242C30.7782 34.5018 30.7711 34.1722 30.6995 33.8498C30.6637 33.685 30.7925 33.5776 30.7997 33.4271C30.8068 33.0044 30.5992 32.6103 30.6708 32.1876C30.7353 31.815 30.5205 31.4281 30.7353 31.0627C30.7711 30.9982 30.7353 30.8908 30.7138 30.8048C30.6494 30.4752 30.7424 30.1456 30.7066 29.8161C30.6708 29.5438 30.5563 29.293 30.5563 28.9634C30.9357 29.207 31.1934 29.465 31.3724 29.8734C31.5084 30.1815 31.8592 30.4036 32.1598 30.6042C32.3316 30.7188 32.482 30.8549 32.5249 31.0556C32.5893 31.3923 32.7898 31.5786 33.0905 31.6932C33.2479 31.7577 33.3338 31.9082 33.3768 32.0515C33.4699 32.3524 33.7347 32.4599 33.9781 32.5458C34.3504 32.682 34.5222 33.0044 34.7155 33.2838C34.8014 33.4056 34.8658 33.5417 34.9732 33.6564C35.2882 33.9788 35.6246 34.2797 35.9038 34.6308C36.0899 34.8672 36.2116 35.161 36.4765 35.3186C36.8201 35.5192 37.042 35.8488 37.3427 36.0996C37.5145 36.2429 37.6648 36.4435 37.8223 36.6226C38.1158 36.9522 38.3879 37.3033 38.7887 37.5254C38.9248 37.6042 39.0465 37.7546 39.1252 37.8908C39.2755 38.1487 39.5476 38.2848 39.7122 38.5069C40.0343 38.944 40.5211 39.2378 40.7932 39.7035C40.9363 39.9471 41.0867 40.1262 41.3086 40.291C41.6665 40.5632 42.0674 40.5561 42.4683 40.5274C42.5971 40.5203 42.7475 40.3268 42.8334 40.1763C42.905 40.0474 42.9909 40.033 43.0982 40.0545C43.3989 40.1047 43.6709 40.0545 43.943 39.9256C44.2222 39.7966 44.5228 39.6676 44.802 39.6103C45.3962 39.4957 45.9116 39.1374 46.5272 39.0873C46.7492 39.0658 47.0355 39.0013 47.2431 38.7935C47.372 38.6646 47.5867 38.6646 47.78 38.6861C48.0735 38.7147 48.3384 38.6932 48.6032 38.5284C48.8037 38.3995 49.0757 38.5284 49.2905 38.4138C49.3406 38.3851 49.4265 38.3995 49.4551 38.3636C49.6341 38.1415 49.8489 38.0556 50.128 38.0986C50.1495 38.0986 50.1782 38.0986 50.1853 38.0842C50.443 37.6758 50.8511 37.9338 51.1804 37.8478C51.2448 37.8335 51.3235 37.8478 51.3736 37.7976C51.8318 37.3319 52.5119 37.4394 53.0488 37.16C53.0989 37.1313 53.1919 37.1456 53.2492 37.1671C53.4711 37.2531 53.7145 37.1815 53.8291 37.0525C54.1082 36.7516 54.459 36.7516 54.8026 36.6943C55.361 36.6011 55.9051 36.4435 56.4277 36.2429C56.9288 36.0494 56.9073 36.0279 56.9932 36.5581C57.0505 36.9235 56.8715 37.2531 56.893 37.6185C56.9073 37.9266 56.986 38.2418 56.9359 38.5571C56.9216 38.6502 56.9574 38.7505 56.8643 38.8294C56.7856 38.8938 56.7641 38.9798 56.7856 39.073C56.9073 39.596 56.7856 40.1405 56.986 40.6492C57.0218 40.7495 57.0433 40.8498 57.0003 40.9358C56.8643 41.2296 56.986 41.5878 56.7498 41.8601C56.6925 41.9245 56.7498 42.0105 56.7641 42.0893C56.8429 42.4906 56.9359 42.8918 56.7856 43.293C56.7713 43.336 56.8071 43.4005 56.8285 43.4578C56.9717 43.8519 57.0934 44.2388 56.8285 44.6328C56.7426 44.7618 56.8715 44.8979 56.8715 45.0341C56.8715 45.292 56.8786 45.5571 56.9288 45.815C57.0218 46.3237 57.0934 46.8324 57.0433 47.3483C57.0433 47.4128 57.0648 47.4844 57.0719 47.5489C57.1006 47.7853 57.1077 48.0146 56.9359 48.2152C56.8357 48.3299 56.8071 48.4732 56.8858 48.6308L56.8786 48.6523ZM65.4475 31.6502C65.3402 31.7935 65.1612 31.944 64.9608 31.8437C64.7746 31.7505 64.6673 31.8222 64.5456 31.9368C64.338 32.1303 64.116 32.2879 63.8082 32.2234C63.7223 32.2019 63.6507 32.2449 63.5863 32.2951C63.4431 32.4025 63.3 32.5172 63.1067 32.4025C63.0852 32.3882 63.0494 32.4025 63.0208 32.4097C62.4051 32.6963 61.7394 32.8611 61.1237 33.1548C60.7801 33.3196 60.3577 33.4271 59.9426 33.4486C59.6204 33.4629 59.3126 33.5489 59.0406 33.771C58.8043 33.9645 58.4679 34.0433 58.1744 34.0146C57.6947 33.9645 57.3225 34.2726 56.9073 34.3155C56.4133 34.3657 55.9767 34.595 55.4899 34.6451C55.4183 34.6451 55.3395 34.6451 55.2894 34.6881C54.9888 34.8959 54.6165 34.8744 54.2872 34.989C54.2586 34.9962 54.2085 34.989 54.2013 35.0105C53.9937 35.4619 53.5069 35.2685 53.1776 35.4476C52.7052 35.7055 52.1539 35.6482 51.6457 35.77C51.5669 35.7915 51.4953 35.813 51.4381 35.8703C51.3951 35.9133 51.3235 35.9849 51.3021 35.9706C50.9584 35.7772 50.7938 36.1282 50.5576 36.2214C50.4287 36.2715 50.2998 36.2715 50.1853 36.2787C49.8059 36.3002 49.5697 36.6369 49.2117 36.6799C48.8681 36.7157 48.5675 37.0238 48.1809 36.859C48.1093 36.8304 47.9804 36.9092 47.8874 36.9665C47.5151 37.1815 47.0641 37.1671 46.6919 37.3749C46.5774 37.4394 46.4843 37.468 46.3697 37.3749C46.3053 37.3248 46.2123 37.3606 46.1407 37.3964C45.8185 37.5684 45.4606 37.64 45.1599 37.8621C45.0168 37.9696 44.8306 38.0914 44.6087 38.0126C44.5658 37.9982 44.4942 38.0054 44.4655 38.0341C44.0432 38.4066 43.5134 38.2992 43.0267 38.378C42.9694 38.3851 42.8763 38.378 42.8549 38.4138C42.6902 38.6861 42.4611 38.6574 42.1748 38.6502C41.9385 38.6431 41.8526 38.5643 41.7524 38.3851C41.6021 38.1057 41.3659 37.8908 41.1654 37.6472C40.8433 37.2459 40.4352 36.9235 40.1417 36.5008C40.0343 36.3432 39.8983 36.2285 39.7337 36.1282C39.569 36.0279 39.5476 35.7843 39.3328 35.6912C39.2326 35.6482 39.1825 35.4906 39.025 35.5121C39.0107 35.5121 38.9749 35.5049 38.9749 35.4906C38.8818 35.075 38.4022 35.0607 38.2089 34.7311C37.987 34.3442 37.5288 34.1436 37.2997 33.7567C37.0921 33.3913 36.7772 33.162 36.4407 32.9399C36.1973 32.7823 36.0327 32.5243 35.8823 32.3022C35.6676 31.9798 35.4385 31.6359 35.1665 31.4281C34.8014 31.1415 34.5938 30.6758 34.1213 30.511C33.928 30.4466 33.7705 30.2889 33.7061 30.074C33.6488 29.8734 33.4842 29.7659 33.3267 29.6728C33.0976 29.5438 32.9473 29.3647 32.8399 29.1354C32.6824 28.8058 32.3817 28.641 32.0954 28.4547C31.895 28.3186 31.7017 28.1682 31.5728 27.946C31.4296 27.6881 31.4941 27.5735 31.7661 27.5663C32.167 27.6595 32.4963 27.4803 32.8327 27.3514C32.9043 27.3227 32.9902 27.2797 33.0618 27.294C33.3768 27.3442 33.6775 27.2654 33.9566 27.1436C34.3289 26.986 34.7584 27.0433 35.1092 26.8785C35.4671 26.7137 35.8609 26.6994 36.2188 26.5274C36.362 26.4558 36.5767 26.4558 36.7557 26.4558C37.3642 26.4486 37.9225 26.1405 38.5382 26.1978C38.7529 26.2193 38.9605 26.1477 39.1252 26.0259C39.297 25.8897 39.4831 25.8611 39.6836 25.8897C39.9126 25.9184 40.1202 25.8683 40.3064 25.7536C40.5569 25.596 40.8003 25.5172 41.1153 25.6175C41.3587 25.6891 41.6379 25.553 41.8884 25.4957C42.232 25.4169 42.59 25.4527 42.9336 25.2879C43.1698 25.1733 43.4562 25.1446 43.6924 24.9942C43.9788 24.8222 44.3152 24.9225 44.623 24.9153C44.9953 24.9153 45.3103 24.8007 45.6252 24.6431C45.9617 24.4783 46.3268 24.5141 46.6847 24.4783C47.0641 24.4425 47.4292 24.3565 47.7585 24.163C47.8373 24.1129 47.9089 24.0986 47.9948 24.0842C48.5961 23.9696 49.2117 23.9624 49.7987 23.7761C50.5003 23.554 51.2162 23.4251 51.9463 23.3821C52.1325 23.3677 52.3401 23.2889 52.4904 23.1743C52.8197 22.9307 53.1919 22.8949 53.5642 22.902C53.736 22.902 53.8863 22.8877 54.0367 22.8232C54.1727 22.7659 54.2944 22.7516 54.4519 22.8447C54.6881 22.988 54.8814 22.7516 55.0604 22.6584C55.2751 22.551 55.4684 22.4721 55.7046 22.422C55.991 22.3647 56.2845 22.3647 56.5708 22.2429C56.8214 22.1426 57.1435 22.3288 57.2724 22.5868C57.3082 22.6513 57.344 22.7086 57.4084 22.7372C57.5659 22.8089 57.6231 22.9092 57.6446 23.0955C57.6733 23.3606 57.9238 23.5612 58.1171 23.6687C58.4249 23.8406 58.5538 24.1344 58.7757 24.3636C58.8258 24.4138 58.8401 24.4998 58.9189 24.5069C59.241 24.5284 59.2768 24.815 59.3555 25.0156C59.4271 25.1876 59.4987 25.3022 59.6705 25.3667C59.8924 25.4527 60.0929 25.553 60.143 25.8324C60.1716 25.9972 60.279 26.1262 60.4723 26.1763C60.7443 26.2408 60.8231 26.5346 61.002 26.7137C61.2741 26.9716 61.589 27.2224 61.7107 27.6021C61.7895 27.8314 61.9255 27.9174 62.1474 27.989C62.3407 28.0464 62.5125 28.2255 62.5626 28.4619C62.6056 28.6482 62.6986 28.7772 62.8776 28.8703C63.0494 28.9634 63.1854 29.1067 63.3 29.2715C63.572 29.6584 63.98 29.9307 64.2163 30.3606C64.295 30.5039 64.5169 30.5755 64.6887 30.6543C64.9966 30.7976 64.9178 31.206 65.2042 31.3636C65.2256 31.378 65.2399 31.4066 65.2543 31.4353C65.3044 31.5284 65.5549 31.4998 65.4332 31.6646L65.4475 31.6502Z" fill="black"/>
<path d="M28.9598 7.21825C28.8595 7.19675 28.7593 7.22541 28.6734 7.2684C28.022 7.56932 27.4278 7.96339 26.9124 8.46492C26.7907 8.57956 26.669 8.70136 26.5759 8.83749C26.4399 9.04527 26.4757 9.26021 26.626 9.43933C26.7692 9.60412 26.9768 9.62562 27.1701 9.52531C27.435 9.38918 27.6998 9.23155 27.9361 9.0596C28.2367 8.83749 28.5302 8.60822 28.8237 8.37894C29.0027 8.23565 29.1602 8.07086 29.2747 7.87741C29.4609 7.56932 29.2891 7.23258 28.9526 7.22541L28.9598 7.21825Z" fill="black"/>
<path d="M24.7004 8.64466C23.9845 8.21477 23.1613 8.14312 22.381 7.94251C22.1734 7.93534 21.9729 7.92818 21.8154 8.07864C21.5506 8.32941 21.7582 8.75929 22.202 8.87393C22.7819 9.03156 23.3617 9.16769 23.8986 9.45428C24.0704 9.54742 24.2709 9.60474 24.4713 9.55459C24.7219 9.49727 24.9581 9.3898 25.001 9.1032C25.0297 8.88826 24.865 8.74496 24.6932 8.64466H24.7004Z" fill="black"/>
<path d="M37.5502 18.0594C38.3019 18.0522 38.6813 17.7799 38.6884 17.2498C38.6884 16.9417 38.2016 16.3828 37.9153 16.3828C37.5144 16.3828 36.9847 16.6837 36.9775 16.913C36.9632 17.4002 37.2925 18.0594 37.543 18.0594H37.5502Z" fill="black"/>
</svg>
